<svg width="160" height="160" viewBox="0 0 160 160" fill="none" xmlns="http://www.w3.org/2000/svg">
<path d="M99.4951 26.4375C100.062 24.8806 99.2607 23.1513 97.6774 22.6632C86.5678 19.2378 74.6785 19.108 63.4618 22.3243C51.2818 25.8168 40.5203 33.0756 32.7194 43.0603C24.9185 53.045 20.4788 65.243 20.0366 77.906C19.5943 90.5691 23.1723 103.047 30.2577 113.552C37.3431 124.056 47.5722 132.048 59.4788 136.382C71.3854 140.715 84.3583 141.168 96.5382 137.676C108.718 134.183 119.48 126.924 127.281 116.94C134.465 107.745 138.798 96.6724 139.784 85.0885C139.924 83.4376 138.621 82.0471 136.965 81.9893C135.309 81.9315 133.929 83.2284 133.779 84.8785C132.843 95.1955 128.956 105.049 122.553 113.246C115.532 122.232 105.846 128.765 94.8844 131.908C83.9225 135.051 72.2469 134.644 61.5309 130.743C50.815 126.843 41.6088 119.65 35.232 110.196C28.8551 100.742 25.6349 89.5122 26.0329 78.1154C26.4309 66.7187 30.4266 55.7405 37.4474 46.7543C44.4682 37.7681 54.1537 31.2351 65.1156 28.0919C75.1142 25.2248 85.7065 25.3121 95.6228 28.3093C97.2088 28.7886 98.9285 27.9945 99.4951 26.4375Z" fill="#3C57EF"/>
</svg>
