<svg width="160" height="160" viewBox="0 0 160 160" fill="none" xmlns="http://www.w3.org/2000/svg">
<g clip-path="url(#clip0_8_721)">
<path d="M69.0269 112.8C68.1593 112.8 67.3001 112.63 66.4985 112.3C65.697 111.97 64.9688 111.485 64.3556 110.875L46.7362 93.3541C46.1223 92.7443 45.6353 92.0202 45.3031 91.2232C44.9708 90.4261 44.7998 89.5718 44.7998 88.7089C44.7998 87.8461 44.9708 86.9918 45.3031 86.1947C45.6353 85.3976 46.1223 84.6735 46.7362 84.0637C47.3494 83.4533 48.0776 82.9691 48.8791 82.6387C49.6807 82.3083 50.5398 82.1382 51.4075 82.1382C52.2752 82.1382 53.1344 82.3083 53.9359 82.6387C54.7374 82.9691 55.4656 83.4533 56.0789 84.0637L68.3112 96.2275L103.383 49.7252C104.448 48.3697 106.005 47.4836 107.72 47.2572C109.435 47.0308 111.171 47.4821 112.555 48.5141C113.94 49.5462 114.862 51.0768 115.124 52.7774C115.386 54.4779 114.967 56.2128 113.957 57.6095L74.3128 110.172C73.6979 110.989 72.9 111.651 71.9824 112.108C71.0648 112.564 70.0528 112.801 69.0269 112.8Z" fill="#3C57EF"/>
<g opacity="0.4">
<path d="M16 82.6667H2.66667C1.95942 82.6667 1.28115 82.3857 0.781049 81.8856C0.280952 81.3855 0 80.7072 0 80C0 79.2928 0.280952 78.6145 0.781049 78.1144C1.28115 77.6143 1.95942 77.3333 2.66667 77.3333H16C16.7072 77.3333 17.3855 77.6143 17.8856 78.1144C18.3857 78.6145 18.6667 79.2928 18.6667 80C18.6667 80.7072 18.3857 81.3855 17.8856 81.8856C17.3855 82.3857 16.7072 82.6667 16 82.6667ZM13.032 121.333C12.4448 121.334 11.8738 121.141 11.4076 120.783C10.9415 120.426 10.6063 119.925 10.454 119.358C10.3017 118.791 10.3409 118.189 10.5655 117.647C10.7901 117.104 11.1875 116.651 11.696 116.357L23.2427 109.691C23.8548 109.343 24.5798 109.251 25.2594 109.435C25.939 109.62 26.518 110.066 26.8701 110.675C27.2222 111.285 27.3188 112.01 27.1388 112.69C26.9588 113.371 26.5168 113.953 25.9093 114.309L14.3627 120.976C13.9585 121.211 13.4993 121.334 13.032 121.333ZM41.3307 149.637C40.8625 149.638 40.4025 149.515 39.997 149.281C39.5915 149.047 39.2549 148.71 39.021 148.304C38.7871 147.899 38.6643 147.439 38.6648 146.97C38.6653 146.502 38.7892 146.042 39.024 145.637L45.6907 134.091C45.8658 133.787 46.0989 133.522 46.3767 133.308C46.6545 133.095 46.9716 132.939 47.3099 132.848C47.6481 132.758 48.0009 132.734 48.3481 132.78C48.6953 132.826 49.0301 132.94 49.3333 133.115C49.6366 133.29 49.9024 133.523 50.1156 133.801C50.3288 134.079 50.4851 134.396 50.5758 134.734C50.6664 135.072 50.6895 135.425 50.6438 135.772C50.5981 136.119 50.4844 136.454 50.3093 136.757L43.6427 148.304C43.1467 149.157 42.2533 149.637 41.3307 149.637ZM80 160C79.2928 160 78.6145 159.719 78.1144 159.219C77.6143 158.719 77.3333 158.041 77.3333 157.333V144C77.3333 143.293 77.6143 142.614 78.1144 142.114C78.6145 141.614 79.2928 141.333 80 141.333C80.7072 141.333 81.3855 141.614 81.8856 142.114C82.3857 142.614 82.6667 143.293 82.6667 144V157.333C82.6667 158.041 82.3857 158.719 81.8856 159.219C81.3855 159.719 80.7072 160 80 160ZM118.669 149.637C118.201 149.638 117.74 149.516 117.334 149.281C116.928 149.047 116.591 148.71 116.357 148.304L109.691 136.757C109.343 136.145 109.251 135.42 109.435 134.741C109.62 134.061 110.066 133.482 110.675 133.13C111.285 132.778 112.01 132.681 112.69 132.861C113.371 133.041 113.953 133.483 114.309 134.091L120.976 145.637C121.21 146.043 121.333 146.502 121.333 146.97C121.333 147.438 121.21 147.898 120.977 148.303C120.743 148.708 120.407 149.045 120.002 149.279C119.597 149.513 119.137 149.637 118.669 149.637ZM146.968 121.333C146.501 121.334 146.042 121.211 145.637 120.976L134.091 114.309C133.785 114.136 133.517 113.903 133.301 113.625C133.086 113.347 132.927 113.029 132.835 112.69C132.743 112.35 132.719 111.996 132.764 111.647C132.81 111.299 132.923 110.962 133.099 110.658C133.275 110.353 133.51 110.086 133.789 109.873C134.068 109.659 134.387 109.503 134.727 109.413C135.067 109.323 135.422 109.301 135.77 109.349C136.118 109.397 136.454 109.513 136.757 109.691L148.304 116.357C148.815 116.65 149.214 117.103 149.44 117.646C149.666 118.189 149.706 118.792 149.553 119.36C149.401 119.928 149.065 120.43 148.597 120.787C148.129 121.144 147.556 121.336 146.968 121.333ZM157.333 82.6667H144C143.293 82.6667 142.614 82.3857 142.114 81.8856C141.614 81.3855 141.333 80.7072 141.333 80C141.333 79.2928 141.614 78.6145 142.114 78.1144C142.614 77.6143 143.293 77.3333 144 77.3333H157.333C158.041 77.3333 158.719 77.6143 159.219 78.1144C159.719 78.6145 160 79.2928 160 80C160 80.7072 159.719 81.3855 159.219 81.8856C158.719 82.3857 158.041 82.6667 157.333 82.6667ZM135.427 50.6667C134.839 50.6672 134.268 50.4739 133.802 50.1168C133.336 49.7597 133.001 49.2586 132.849 48.6915C132.696 48.1243 132.736 47.5228 132.96 46.9802C133.185 46.4376 133.582 45.9843 134.091 45.6907L145.637 39.024C146.25 38.6704 146.978 38.5745 147.661 38.7576C148.344 38.9406 148.926 39.3875 149.28 40C149.634 40.6125 149.729 41.3403 149.546 42.0235C149.363 42.7066 148.916 43.289 148.304 43.6427L136.757 50.3093C136.353 50.5439 135.894 50.6672 135.427 50.6667ZM111.997 27.2427C111.529 27.243 111.069 27.1199 110.664 26.8859C110.258 26.6518 109.922 26.3151 109.688 25.9095C109.454 25.5039 109.331 25.0439 109.331 24.5757C109.332 24.1075 109.456 23.6477 109.691 23.2427L116.357 11.696C116.531 11.3903 116.764 11.122 117.042 10.9065C117.32 10.691 117.637 10.5326 117.977 10.4405C118.316 10.3484 118.67 10.3243 119.019 10.3696C119.368 10.4149 119.704 10.5288 120.009 10.7046C120.313 10.8805 120.58 11.1148 120.794 11.3942C121.007 11.6736 121.164 11.9924 121.254 12.3324C121.343 12.6724 121.365 13.0268 121.318 13.3753C121.27 13.7237 121.154 14.0593 120.976 14.3627L114.309 25.9093C113.813 26.7627 112.92 27.2427 111.997 27.2427ZM80 18.6667C79.2928 18.6667 78.6145 18.3857 78.1144 17.8856C77.6143 17.3855 77.3333 16.7072 77.3333 16V2.66667C77.3333 1.95942 77.6143 1.28115 78.1144 0.781049C78.6145 0.280952 79.2928 0 80 0C80.7072 0 81.3855 0.280952 81.8856 0.781049C82.3857 1.28115 82.6667 1.95942 82.6667 2.66667V16C82.6667 16.7072 82.3857 17.3855 81.8856 17.8856C81.3855 18.3857 80.7072 18.6667 80 18.6667ZM48.0027 27.2427C47.534 27.2437 47.0734 27.1209 46.6674 26.8868C46.2615 26.6526 45.9245 26.3155 45.6907 25.9093L39.024 14.3627C38.676 13.7505 38.5842 13.0255 38.7687 12.346C38.9532 11.6664 39.399 11.0874 40.0088 10.7353C40.6186 10.3832 41.343 10.2866 42.0238 10.4666C42.7046 10.6466 43.2865 11.0885 43.6427 11.696L50.3093 23.2427C50.5433 23.6479 50.6665 24.1075 50.6666 24.5753C50.6667 25.0432 50.5437 25.5028 50.31 25.9081C50.0763 26.3135 49.74 26.6501 49.335 26.8844C48.93 27.1186 48.4705 27.2422 48.0027 27.2427ZM24.5733 50.6667C24.106 50.6672 23.6469 50.5439 23.2427 50.3093L11.696 43.6427C11.3925 43.4678 11.1264 43.2348 10.913 42.957C10.6997 42.6792 10.5432 42.3621 10.4525 42.0238C10.3619 41.6854 10.3388 41.3325 10.3847 40.9852C10.4306 40.638 10.5446 40.3032 10.72 40C10.8946 39.6962 11.1275 39.4299 11.4052 39.2163C11.683 39.0028 12.0002 38.8461 12.3386 38.7555C12.6771 38.6648 13.0301 38.6418 13.3774 38.6879C13.7248 38.734 14.0596 38.8482 14.3627 39.024L25.9093 45.6907C26.42 45.983 26.8195 46.4361 27.0455 46.9793C27.2715 47.5225 27.3114 48.1252 27.1588 48.6935C27.0062 49.2617 26.6698 49.7635 26.2021 50.1204C25.7344 50.4774 25.1617 50.6694 24.5733 50.6667Z" fill="#3C57EF"/>
</g>
</g>
<defs>
<clipPath id="clip0_8_721">
<rect width="160" height="160" fill="white"/>
</clipPath>
</defs>
</svg>
