<svg width="160" height="160" viewBox="0 0 160 160" fill="none" xmlns="http://www.w3.org/2000/svg">
<path d="M148.82 117.265L92.88 27.6C91.5265 25.4073 89.6355 23.5965 87.3864 22.3391C85.1372 21.0818 82.6042 20.4194 80.0275 20.4149C77.4507 20.4104 74.9154 21.0639 72.6619 22.3134C70.4083 23.5629 68.5111 25.3671 67.1499 27.555L11.1199 117.37C9.81719 119.655 9.1323 122.24 9.13281 124.87C9.13332 127.5 9.8192 130.084 11.1228 132.369C12.4265 134.653 14.3029 136.558 16.5671 137.896C18.8313 139.234 21.4052 139.96 24.0349 140H135.965C138.604 139.958 141.187 139.227 143.457 137.878C145.726 136.53 147.604 134.612 148.903 132.314C150.202 130.016 150.878 127.418 150.864 124.778C150.849 122.139 150.145 119.548 148.82 117.265Z" fill="#3C57EF"/>
<path d="M75.4349 93.12L74.1049 73.24C73.8449 69.24 72.4799 62.775 75.5349 59.525C77.8599 57.025 83.3649 56.595 85.0349 60.06C86.455 64.1317 86.769 68.5073 85.9449 72.74L84.1649 93.205C84.0884 95.1311 83.6667 97.0279 82.9199 98.805C82.6259 99.3801 82.1803 99.8637 81.6311 100.204C81.082 100.544 80.4504 100.727 79.8046 100.734C79.1588 100.74 78.5234 100.57 77.9674 100.242C77.4113 99.9132 76.9557 99.4388 76.6499 98.87C75.9462 97.0288 75.5362 95.0885 75.4349 93.12ZM80.0399 120.435C78.4632 120.426 76.9491 119.817 75.8056 118.731C74.6622 117.646 73.9754 116.165 73.8849 114.591C73.7945 113.017 74.3072 111.467 75.3187 110.258C76.3302 109.048 77.7646 108.269 79.3299 108.08C80.1709 107.978 81.0237 108.05 81.8359 108.291C82.6481 108.531 83.4024 108.936 84.0522 109.479C84.702 110.022 85.2335 110.693 85.614 111.45C85.9945 112.207 86.2159 113.034 86.2645 113.879C86.3131 114.725 86.1879 115.572 85.8966 116.367C85.6053 117.163 85.1541 117.89 84.5708 118.504C83.9876 119.118 83.2846 119.607 82.5053 119.939C81.726 120.271 80.887 120.44 80.0399 120.435Z" fill="white"/>
</svg>
