<svg width="200" height="24" viewBox="0 0 200 24" fill="none" xmlns="http://www.w3.org/2000/svg">
<path d="M19.3396 9.64453C20.8097 11.6065 16.5045 15.3991 17.4719 13.8327H8.30154C7.30944 12.5354 6.62746 11.1166 6.29956 9.64453H19.3396Z" fill="url(#paint0_linear_10_854)"/>
<path d="M16.682 20.9506C15.3788 21.9896 13.9699 22.8885 12.4785 23.6326L11.7491 24L11.0153 23.6341C4.11605 20.1719 0 14.2084 0 7.67309V0H4.2079V7.67309C4.20715 8.16251 4.24015 8.65141 4.30667 9.1363C4.83654 13.1067 7.51654 16.7694 11.7333 19.2356C11.7373 19.2393 11.7418 19.2425 11.7467 19.2449C11.7511 19.2425 11.7536 19.24 11.758 19.238L11.7758 19.2267C13.2999 20.0791 14.9596 20.6623 16.682 20.9506Z" fill="url(#paint1_linear_10_854)"/>
<path d="M23.3679 9.64453C23.1732 11.1612 22.7572 12.6411 22.1334 14.0371C20.9798 16.6292 19.126 18.9882 16.684 20.9507C14.9625 20.6621 13.3036 20.0789 11.7803 19.2268C12.3306 18.9023 12.8641 18.5503 13.3788 18.1719C13.4301 18.1387 13.4795 18.1028 13.5269 18.0643C16.3773 16.0117 18.4308 13.0373 19.3398 9.64453H23.3679Z" fill="url(#paint2_linear_10_854)"/>
<path d="M23.4981 0H4.20776V4.20593H23.4981V0Z" fill="url(#paint3_linear_10_854)"/>
<path d="M23.4988 4.20703V7.67271C23.4988 7.81592 23.4944 7.95962 23.4899 8.10333H19.2795C19.2838 7.95946 19.286 7.81592 19.286 7.67271V4.20703H23.4988Z" fill="url(#paint4_linear_10_854)"/>
<path d="M50.3082 11.2775C50.3082 12.7035 50.1476 13.8678 49.8265 14.7703C49.3925 16.0665 48.5377 17.1805 47.398 17.9353C46.2438 18.6621 44.9003 19.031 43.5367 18.9957C41.1177 18.9957 39.2619 18.1728 37.9694 16.5269C36.982 15.25 36.464 13.6723 36.5022 12.0586C36.5022 10.1415 37.0749 8.53001 38.2204 7.22408C39.5196 5.74006 41.3342 4.99805 43.6642 4.99805C45.2198 4.99805 46.5386 5.39739 47.6206 6.19606C48.3924 6.75999 49.0514 7.59575 49.5978 8.70337L46.3599 10.0451C46.1444 9.51805 45.8139 9.04584 45.3925 8.66291C44.8611 8.22699 44.1915 7.99518 43.5044 8.00926C42.0135 8.00926 40.9747 8.77623 40.3878 10.3102C40.1688 10.8684 40.0569 11.463 40.0579 12.0627C40.04 12.6379 40.1361 13.2111 40.3407 13.7491C40.5453 14.2871 40.8543 14.7793 41.2499 15.1973C41.8381 15.8206 42.6227 16.1316 43.6035 16.1302C44.4737 16.1302 45.1638 15.8773 45.6738 15.3713C46.0463 14.9615 46.2776 14.443 46.3335 13.892H43.5145V11.2775H50.3082ZM67.9268 13.0138C67.9352 13.6938 67.8673 14.3726 67.7245 15.0374C67.5026 15.9575 67.0082 16.789 66.3058 17.4233C65.2373 18.4338 63.8085 18.9391 62.0195 18.9391C60.1995 18.9391 58.7782 18.4244 57.7555 17.395C57.203 16.833 56.8182 16.128 56.6445 15.3592C56.4843 14.5915 56.413 13.8079 56.432 13.0239V5.41897H59.8582V12.5443C59.8582 13.1177 59.8683 13.5446 59.8885 13.8253C59.9506 14.7197 60.3554 15.3437 61.1028 15.6972C61.4231 15.847 61.7732 15.9224 62.1268 15.9177C62.9619 15.9177 63.592 15.6257 64.017 15.0415C64.3327 14.6111 64.4905 13.7787 64.4905 12.5443V5.41897H67.9167L67.9268 13.0138ZM85.9705 18.591H82.3116L81.4636 16.2941H76.7342L75.8275 18.591H72.2091L77.2684 5.41897H81.0103L85.9705 18.591ZM80.5368 13.6897L79.1201 9.49058L77.6813 13.6897H80.5368ZM102.393 18.591H98.1433L94.8709 13.5318V18.591H91.4366V5.41897H96.7651C98.3221 5.41897 99.4736 5.8851 100.22 6.81733C100.824 7.5687 101.145 8.50845 101.126 9.47237C101.126 10.6367 100.779 11.5662 100.084 12.261C99.5745 12.7394 98.938 13.0612 98.2506 13.1878L102.393 18.591ZM97.5766 9.66057C97.5805 9.43817 97.5368 9.21751 97.4485 9.01335C97.3602 8.80918 97.2293 8.62623 97.0646 8.47672C96.7408 8.17452 96.2207 8.0241 95.5043 8.02545H94.8648V11.3058H95.5043C96.2288 11.3058 96.7469 11.154 97.0646 10.8525C97.2289 10.701 97.3592 10.5165 97.4471 10.3111C97.535 10.1057 97.5785 9.88398 97.5746 9.66057H97.5766ZM119.334 11.9999C119.315 13.3631 118.883 14.6885 118.096 15.8013C117.308 16.9141 116.202 17.7619 114.922 18.2328C114.252 18.4679 113.548 18.5883 112.838 18.589H107.778V5.41897H112.838C114.061 5.41423 115.259 5.77349 116.278 6.45105C117.301 7.10829 118.124 8.03363 118.658 9.12632C119.101 10.0197 119.332 11.0029 119.334 11.9999ZM115.782 11.9999C115.799 11.1436 115.53 10.306 115.017 9.6201C114.343 8.72294 113.331 8.27503 111.982 8.27638H111.198V15.7356H111.982C113.331 15.7356 114.343 15.287 115.017 14.3899C115.528 13.6992 115.796 12.8588 115.778 11.9999H115.782ZM136.402 18.591H132.745L131.895 16.2941H127.166L126.259 18.591H122.641L127.7 5.41897H131.442L136.402 18.591ZM130.968 13.6897L129.552 9.49058L128.123 13.6897H130.968ZM152.825 18.591H148.563L145.292 13.5318V18.591H141.87V5.41897H147.197C148.754 5.41897 149.905 5.8851 150.651 6.81733C151.255 7.5687 151.576 8.50845 151.558 9.47237C151.558 10.6367 151.21 11.5662 150.516 12.261C150.006 12.7394 149.37 13.0612 148.682 13.1878L152.825 18.591ZM148.01 9.66057C148.014 9.43804 147.97 9.21732 147.881 9.01317C147.792 8.80902 147.661 8.62613 147.496 8.47672C147.172 8.1752 146.654 8.02545 145.938 8.02545H145.298V11.3058H145.932C146.655 11.3058 147.174 11.1547 147.49 10.8525C147.656 10.7017 147.788 10.5175 147.877 10.312C147.966 10.1066 148.011 9.88456 148.008 9.66057H148.01ZM161.642 18.591H158.214V5.41897H161.64L161.642 18.591ZM180.88 18.591H177.221L176.371 16.2941H171.643L170.737 18.591H167.116L172.176 5.41897H175.91L180.88 18.591ZM175.448 13.6897L174.031 9.49058L172.593 13.6897H175.448ZM199.5 18.591H196.074L189.772 10.5247V18.591H186.346V5.41897H189.772L196.074 13.4772V5.41897H199.5V18.591Z" fill="url(#paint5_linear_10_854)"/>
<defs>
<linearGradient id="paint0_linear_10_854" x1="23.5894" y1="14.3714" x2="7.544" y2="10.047" gradientUnits="userSpaceOnUse">
<stop offset="0.14" stop-color="#ADADAD"/>
<stop offset="0.29" stop-color="#CBCBCB"/>
<stop offset="0.43" stop-color="#E2E2E2"/>
<stop offset="0.59" stop-color="#F2F2F2"/>
<stop offset="0.77" stop-color="#FCFCFC"/>
<stop offset="1" stop-color="white"/>
</linearGradient>
<linearGradient id="paint1_linear_10_854" x1="17.6657" y1="28.0741" x2="-5.01531" y2="-3.56" gradientUnits="userSpaceOnUse">
<stop stop-color="#ADADAD"/>
<stop offset="0.17" stop-color="#CBCBCB"/>
<stop offset="0.34" stop-color="#E2E2E2"/>
<stop offset="0.52" stop-color="#F2F2F2"/>
<stop offset="0.73" stop-color="#FCFCFC"/>
<stop offset="1" stop-color="white"/>
</linearGradient>
<linearGradient id="paint2_linear_10_854" x1="12.0415" y1="23.2855" x2="22.8143" y2="9.62971" gradientUnits="userSpaceOnUse">
<stop offset="0.15" stop-color="#ADADAD"/>
<stop offset="0.29" stop-color="#CBCBCB"/>
<stop offset="0.44" stop-color="#E2E2E2"/>
<stop offset="0.6" stop-color="#F2F2F2"/>
<stop offset="0.77" stop-color="#FCFCFC"/>
<stop offset="1" stop-color="white"/>
</linearGradient>
<linearGradient id="paint3_linear_10_854" x1="2.35344" y1="13.0277" x2="11.4576" y2="4.37927" gradientUnits="userSpaceOnUse">
<stop offset="0.14" stop-color="#ADADAD"/>
<stop offset="0.43" stop-color="#C9C9C9"/>
<stop offset="1" stop-color="white"/>
</linearGradient>
<linearGradient id="paint4_linear_10_854" x1="21.3892" y1="1.99951" x2="21.3892" y2="8.10333" gradientUnits="userSpaceOnUse">
<stop offset="0.0895638" stop-color="#ADADAD"/>
<stop offset="0.240189" stop-color="#CBCBCB"/>
<stop offset="0.425047" stop-color="#E2E2E2"/>
<stop offset="0.536875" stop-color="#F2F2F2"/>
<stop offset="1" stop-color="white"/>
</linearGradient>
<linearGradient id="paint5_linear_10_854" x1="118.004" y1="29.537" x2="118.004" y2="-6.88086" gradientUnits="userSpaceOnUse">
<stop offset="0.18" stop-color="#ADADAD"/>
<stop offset="0.32" stop-color="#CBCBCB"/>
<stop offset="0.46" stop-color="#E2E2E2"/>
<stop offset="0.61" stop-color="#F2F2F2"/>
<stop offset="0.78" stop-color="#FCFCFC"/>
<stop offset="1" stop-color="white"/>
</linearGradient>
</defs>
</svg>
